<svg width="1440" height="1040" viewBox="0 0 1440 1040" fill="none" xmlns="http://www.w3.org/2000/svg">
<line x1="658.898" y1="-1.99023" x2="658.898" y2="1516.51" stroke="white" stroke-opacity="0.16" stroke-width="1.58513"/>
<line x1="782.055" y1="-2.33474" x2="1502.39" y2="1474.57" stroke="white" stroke-opacity="0.16" stroke-width="1.58513"/>
<line y1="-0.792567" x2="1643.2" y2="-0.792567" transform="matrix(0.438371 -0.898794 -0.898794 -0.438371 -139.819 1378)" stroke="white" stroke-opacity="0.16" stroke-width="1.58513"/>
<line x1="1035.43" y1="-2.64437" x2="1828.47" y2="532.268" stroke="white" stroke-opacity="0.16" stroke-width="1.58513"/>
<line y1="-0.792567" x2="956.579" y2="-0.792567" transform="matrix(0.829038 -0.559193 -0.559193 -0.829038 -489.224 515.794)" stroke="white" stroke-opacity="0.16" stroke-width="1.58513"/>
<line x1="905.447" y1="-2.54773" x2="1778.96" y2="870.968" stroke="white" stroke-opacity="0.16" stroke-width="1.58513"/>
<line y1="-0.792567" x2="1235.34" y2="-0.792567" transform="matrix(0.707107 -0.707107 -0.707107 -0.707107 -462.626 869.387)" stroke="white" stroke-opacity="0.16" stroke-width="1.58513"/>
<line x1="-757.904" y1="12.5346" x2="2095.34" y2="12.5346" stroke="white" stroke-opacity="0.16" stroke-width="1.58513"/>
<line x1="-757.904" y1="33.3246" x2="2095.34" y2="33.3246" stroke="white" stroke-opacity="0.16" stroke-width="1.58513"/>
<line x1="-757.904" y1="56.643" x2="2095.34" y2="56.643" stroke="white" stroke-opacity="0.16" stroke-width="1.58513"/>
<line x1="-757.904" y1="82.4731" x2="2095.34" y2="82.4731" stroke="white" stroke-opacity="0.16" stroke-width="1.58513"/>
<line x1="-757.904" y1="112.061" x2="2095.34" y2="112.061" stroke="white" stroke-opacity="0.16" stroke-width="1.58513"/>
<line x1="-757.904" y1="147.667" x2="2095.34" y2="147.667" stroke="white" stroke-opacity="0.16" stroke-width="1.58513"/>
<line x1="-757.904" y1="188.794" x2="2095.34" y2="188.794" stroke="white" stroke-opacity="0.16" stroke-width="1.58513"/>
<line x1="-757.904" y1="237.943" x2="2095.34" y2="237.943" stroke="white" stroke-opacity="0.16" stroke-width="1.58513"/>
<line x1="-757.904" y1="297.12" x2="2095.34" y2="297.12" stroke="white" stroke-opacity="0.16" stroke-width="1.58513"/>
<line x1="-757.904" y1="372.097" x2="2095.34" y2="372.097" stroke="white" stroke-opacity="0.16" stroke-width="1.58513"/>
<line x1="-757.904" y1="464.877" x2="2095.34" y2="464.877" stroke="white" stroke-opacity="0.16" stroke-width="1.58513"/>
<line x1="-757.904" y1="595.137" x2="2095.34" y2="595.137" stroke="white" stroke-opacity="0.16" stroke-width="1.58513"/>
<line x1="-757.904" y1="789.548" x2="2095.34" y2="789.548" stroke="white" stroke-opacity="0.16" stroke-width="1.58513"/>
<rect x="-769" y="-171" width="2853.24" height="1834" fill="url(#paint0_linear_908_994)"/>
<rect x="-767.811" y="-169.811" width="2850.86" height="1831.62" stroke="white" stroke-opacity="0.16" stroke-width="2.3777"/>
<defs>
<linearGradient id="paint0_linear_908_994" x1="657.621" y1="-171" x2="657.621" y2="1663" gradientUnits="userSpaceOnUse">
<stop stop-color="#0E0F11" stop-opacity="0"/>
<stop offset="0.358581" stop-color="#01334D"/>
</linearGradient>
</defs>
</svg>
