<svg width="45" height="47" viewBox="0 0 45 47" fill="none" xmlns="http://www.w3.org/2000/svg">
<path d="M22.3125 11.1562L6.375 19.125V23.9062L22.3125 31.875L38.25 23.9062V19.125L22.3125 11.1562Z" fill="#535386"/>
<path d="M22.3125 27.0938L6.375 21.5156V38.25L22.3125 46.2188L38.25 38.25V19.125L22.3125 27.0938Z" fill="#CBCCEB"/>
<path d="M22.3125 27.0938V46.2188L38.25 38.25V20.7188L22.3125 27.0938Z" fill="#F0EEFE"/>
<path d="M15.9375 33.4688L0 25.5L6.375 19.125L22.3125 27.0938L15.9375 33.4688Z" fill="#8684C2"/>
<path d="M28.6875 33.4688L44.625 25.5L38.25 19.125L22.3125 27.0938L28.6875 33.4688Z" fill="#8684C2"/>
<path d="M22.3125 20.7188C28.0338 20.7188 32.6719 16.0807 32.6719 10.3594C32.6719 4.63805 28.0338 0 22.3125 0C16.5912 0 11.9531 4.63805 11.9531 10.3594C11.9531 16.0807 16.5912 20.7188 22.3125 20.7188Z" fill="#FF876A"/>
<path d="M23.4358 10.3607L27.6593 6.14521C27.8093 5.99516 27.8936 5.79164 27.8936 5.57943C27.8936 5.36722 27.8093 5.16371 27.6593 5.01365C27.5092 4.8636 27.3057 4.7793 27.0935 4.7793C26.8813 4.7793 26.6778 4.8636 26.5277 5.01365L22.3122 9.23709L18.0968 5.01365C17.9467 4.8636 17.7432 4.7793 17.531 4.7793C17.3188 4.7793 17.1153 4.8636 16.9652 5.01365C16.8152 5.16371 16.7309 5.36722 16.7309 5.57943C16.7309 5.79164 16.8152 5.99516 16.9652 6.14521L21.1886 10.3607L16.9652 14.5762C16.8905 14.6502 16.8312 14.7384 16.7908 14.8355C16.7503 14.9326 16.7295 15.0367 16.7295 15.1419C16.7295 15.2471 16.7503 15.3513 16.7908 15.4484C16.8312 15.5455 16.8905 15.6336 16.9652 15.7077C17.0393 15.7824 17.1274 15.8417 17.2245 15.8821C17.3216 15.9226 17.4258 15.9434 17.531 15.9434C17.6362 15.9434 17.7403 15.9226 17.8374 15.8821C17.9346 15.8417 18.0227 15.7824 18.0968 15.7077L22.3122 11.4843L26.5277 15.7077C26.6018 15.7824 26.6899 15.8417 26.787 15.8821C26.8841 15.9226 26.9883 15.9434 27.0935 15.9434C27.1987 15.9434 27.3028 15.9226 27.3999 15.8821C27.4971 15.8417 27.5852 15.7824 27.6593 15.7077C27.734 15.6336 27.7932 15.5455 27.8337 15.4484C27.8742 15.3513 27.895 15.2471 27.895 15.1419C27.895 15.0367 27.8742 14.9326 27.8337 14.8355C27.7932 14.7384 27.734 14.6502 27.6593 14.5762L23.4358 10.3607Z" fill="white"/>
</svg>
